HIERARCHY
ROOT mixamorig:Hips
{
	OFFSET 0.000000 201.639420 0.000000
	CHANNELS 6 Xposition Yposition Zposition Xrotation Yrotation Zrotation
	JOINT mixamorig:Spine
	{
		OFFSET 0.006200 19.524994 -2.481800
		CHANNELS 3 Xrotation Yrotation Zrotation
		JOINT mixamorig:Spine1
		{
			OFFSET -0.000900 22.835007 -2.825400
			CHANNELS 3 Xrotation Yrotation Zrotation
			JOINT mixamorig:Spine2
			{
				OFFSET -0.020600 26.552490 -3.193300
				CHANNELS 3 Xrotation Yrotation Zrotation
				JOINT mixamorig:Neck
				{
					OFFSET -0.060000 30.701813 1.352200
					CHANNELS 3 Xrotation Yrotation Zrotation
					JOINT mixamorig:Head
					{
						OFFSET -0.087200 22.547607 3.670900
						CHANNELS 3 Xrotation Yrotation Zrotation
						JOINT mixamorig:HeadTop_End
						{
							OFFSET -0.830600 40.355194 7.893500
							CHANNELS 3 Xrotation Yrotation Zrotation
							End Site
							{
								OFFSET 0.000000 30.592346 0.000000
							}
						}
						JOINT mixamorig:RightEye
						{
							OFFSET -6.302100 18.118591 16.197100
							CHANNELS 3 Xrotation Yrotation Zrotation
							End Site
							{
								OFFSET 0.000000 30.592346 0.000000
							}
						}
						JOINT mixamorig:LeftEye
						{
							OFFSET 6.741500 18.382690 16.401899
							CHANNELS 3 Xrotation Yrotation Zrotation
							End Site
							{
								OFFSET 0.000000 30.592346 0.000000
							}
						}
					}
				}
				JOINT mixamorig:LeftShoulder
				{
					OFFSET 11.924900 18.230499 1.425400
					CHANNELS 3 Xrotation Yrotation Zrotation
					JOINT mixamorig:LeftArm
					{
						OFFSET 25.435989 -0.697632 -5.229300
						CHANNELS 3 Xrotation Yrotation Zrotation
						JOINT mixamorig:LeftForeArm
						{
							OFFSET 54.684776 0.000000 0.000000
							CHANNELS 3 Xrotation Yrotation Zrotation
							JOINT mixamorig:LeftHand
							{
								OFFSET 55.098175 0.000000 0.000000
								CHANNELS 3 Xrotation Yrotation Zrotation
								JOINT mixamorig:LeftHandMiddle1
								{
									OFFSET 23.369751 0.000000 0.000000
									CHANNELS 3 Xrotation Yrotation Zrotation
									JOINT mixamorig:LeftHandMiddle2
									{
										OFFSET 6.378677 0.000000 0.000000
										CHANNELS 3 Xrotation Yrotation Zrotation
										JOINT mixamorig:LeftHandMiddle3
										{
											OFFSET 6.148331 0.000000 0.000000
											CHANNELS 3 Xrotation Yrotation Zrotation
											JOINT mixamorig:LeftHandMiddle4
											{
												OFFSET 6.582504 0.000000 0.000000
												CHANNELS 3 Xrotation Yrotation Zrotation
												End Site
												{
													OFFSET -1.168900 6.395691 1.028606
												}
											}
										}
									}
								}
								JOINT mixamorig:LeftHandThumb1
								{
									OFFSET 7.235672 -3.848206 5.434273
									CHANNELS 3 Xrotation Yrotation Zrotation
									JOINT mixamorig:LeftHandThumb2
									{
										OFFSET 6.568451 -3.792297 3.792300
										CHANNELS 3 Xrotation Yrotation Zrotation
										JOINT mixamorig:LeftHandThumb3
										{
											OFFSET 6.063080 -3.500519 3.500518
											CHANNELS 3 Xrotation Yrotation Zrotation
											JOINT mixamorig:LeftHandThumb4
											{
												OFFSET 4.793182 -2.767334 2.767349
												CHANNELS 3 Xrotation Yrotation Zrotation
												End Site
												{
													OFFSET 0.101639 6.054260 1.275483
												}
											}
										}
									}
								}
								JOINT mixamorig:LeftHandIndex1
								{
									OFFSET 23.101074 -0.309540 4.992809
									CHANNELS 3 Xrotation Yrotation Zrotation
									JOINT mixamorig:LeftHandIndex2
									{
										OFFSET 6.226883 0.000000 0.000000
										CHANNELS 3 Xrotation Yrotation Zrotation
										JOINT mixamorig:LeftHandIndex3
										{
											OFFSET 6.094330 0.000000 0.000000
											CHANNELS 3 Xrotation Yrotation Zrotation
											JOINT mixamorig:LeftHandIndex4
											{
												OFFSET 5.482605 0.000000 0.000000
												CHANNELS 3 Xrotation Yrotation Zrotation
												End Site
												{
													OFFSET -1.427902 5.233032 0.797164
												}
											}
										}
									}
								}
								JOINT mixamorig:LeftHandRing1
								{
									OFFSET 22.299240 0.021149 -3.964172
									CHANNELS 3 Xrotation Yrotation Zrotation
									JOINT mixamorig:LeftHandRing2
									{
										OFFSET 6.321869 0.000000 0.000000
										CHANNELS 3 Xrotation Yrotation Zrotation
										JOINT mixamorig:LeftHandRing3
										{
											OFFSET 5.899796 0.000000 0.000000
											CHANNELS 3 Xrotation Yrotation Zrotation
											JOINT mixamorig:LeftHandRing4
											{
												OFFSET 6.517899 0.000000 0.000000
												CHANNELS 3 Xrotation Yrotation Zrotation
												End Site
												{
													OFFSET -1.637299 6.232208 0.980890
												}
											}
										}
									}
								}
								JOINT mixamorig:LeftHandPinky1
								{
									OFFSET 20.463791 -0.302338 -8.562233
									CHANNELS 3 Xrotation Yrotation Zrotation
									JOINT mixamorig:LeftHandPinky2
									{
										OFFSET 6.908646 0.000000 0.000000
										CHANNELS 3 Xrotation Yrotation Zrotation
										JOINT mixamorig:LeftHandPinky3
										{
											OFFSET 4.622849 0.000000 0.000000
											CHANNELS 3 Xrotation Yrotation Zrotation
											JOINT mixamorig:LeftHandPinky4
											{
												OFFSET 5.216080 0.000000 0.000000
												CHANNELS 3 Xrotation Yrotation Zrotation
												End Site
												{
													OFFSET -0.606308 5.116241 0.814926
												}
											}
										}
									}
								}
							}
						}
					}
				}
				JOINT mixamorig:RightShoulder
				{
					OFFSET -12.001300 18.284088 1.348900
					CHANNELS 3 Xrotation Yrotation Zrotation
					JOINT mixamorig:RightArm
					{
						OFFSET -25.308500 -0.751312 -5.164599
						CHANNELS 3 Xrotation Yrotation Zrotation
						JOINT mixamorig:RightForeArm
						{
							OFFSET -54.684429 0.000000 0.000000
							CHANNELS 3 Xrotation Yrotation Zrotation
							JOINT mixamorig:RightHand
							{
								OFFSET -55.150291 0.000000 0.000000
								CHANNELS 3 Xrotation Yrotation Zrotation
								JOINT mixamorig:RightHandMiddle1
								{
									OFFSET -23.317566 0.000000 0.000000
									CHANNELS 3 Xrotation Yrotation Zrotation
									JOINT mixamorig:RightHandMiddle2
									{
										OFFSET -6.378403 0.000000 0.000000
										CHANNELS 3 Xrotation Yrotation Zrotation
										JOINT mixamorig:RightHandMiddle3
										{
											OFFSET -6.148193 0.000000 0.000000
											CHANNELS 3 Xrotation Yrotation Zrotation
											JOINT mixamorig:RightHandMiddle4
											{
												OFFSET -6.583389 0.000000 0.000000
												CHANNELS 3 Xrotation Yrotation Zrotation
												End Site
												{
													OFFSET 1.171692 6.395905 1.029786
												}
											}
										}
									}
								}
								JOINT mixamorig:RightHandThumb1
								{
									OFFSET -7.190521 -3.860474 5.435846
									CHANNELS 3 Xrotation Yrotation Zrotation
									JOINT mixamorig:RightHandThumb2
									{
										OFFSET -6.567429 -3.791718 3.791708
										CHANNELS 3 Xrotation Yrotation Zrotation
										JOINT mixamorig:RightHandThumb3
										{
											OFFSET -6.062469 -3.500153 3.500166
											CHANNELS 3 Xrotation Yrotation Zrotation
											JOINT mixamorig:RightHandThumb4
											{
												OFFSET -4.792618 -2.767029 2.767022
												CHANNELS 3 Xrotation Yrotation Zrotation
												End Site
												{
													OFFSET -0.100327 6.053253 1.276754
												}
											}
										}
									}
								}
								JOINT mixamorig:RightHandIndex1
								{
									OFFSET -23.048981 -0.310791 4.992554
									CHANNELS 3 Xrotation Yrotation Zrotation
									JOINT mixamorig:RightHandIndex2
									{
										OFFSET -6.227539 0.000000 0.000000
										CHANNELS 3 Xrotation Yrotation Zrotation
										JOINT mixamorig:RightHandIndex3
										{
											OFFSET -6.095047 0.000000 0.000000
											CHANNELS 3 Xrotation Yrotation Zrotation
											JOINT mixamorig:RightHandIndex4
											{
												OFFSET -5.484772 0.000000 0.000000
												CHANNELS 3 Xrotation Yrotation Zrotation
												End Site
												{
													OFFSET 1.420593 5.237305 0.797056
												}
											}
										}
									}
								}
								JOINT mixamorig:RightHandRing1
								{
									OFFSET -22.246323 0.020569 -3.963762
									CHANNELS 3 Xrotation Yrotation Zrotation
									JOINT mixamorig:RightHandRing2
									{
										OFFSET -6.322128 0.000000 0.000000
										CHANNELS 3 Xrotation Yrotation Zrotation
										JOINT mixamorig:RightHandRing3
										{
											OFFSET -5.900024 0.000000 0.000000
											CHANNELS 3 Xrotation Yrotation Zrotation
											JOINT mixamorig:RightHandRing4
											{
												OFFSET -6.518356 0.000000 0.000000
												CHANNELS 3 Xrotation Yrotation Zrotation
												End Site
												{
													OFFSET 1.636398 6.232697 0.982186
												}
											}
										}
									}
								}
								JOINT mixamorig:RightHandPinky1
								{
									OFFSET -20.411011 -0.303314 -8.561701
									CHANNELS 3 Xrotation Yrotation Zrotation
									JOINT mixamorig:RightHandPinky2
									{
										OFFSET -6.907349 0.000000 0.000000
										CHANNELS 3 Xrotation Yrotation Zrotation
										JOINT mixamorig:RightHandPinky3
										{
											OFFSET -4.623840 0.000000 0.000000
											CHANNELS 3 Xrotation Yrotation Zrotation
											JOINT mixamorig:RightHandPinky4
											{
												OFFSET -5.218353 0.000000 0.000000
												CHANNELS 3 Xrotation Yrotation Zrotation
												End Site
												{
													OFFSET 0.602097 5.118835 0.816273
												}
											}
										}
									}
								}
							}
						}
					}
				}
			}
		}
	}
	JOINT mixamorig:LeftUpLeg
	{
		OFFSET 18.168400 -13.561905 -0.039000
		CHANNELS 3 Xrotation Yrotation Zrotation
		JOINT mixamorig:LeftLeg
		{
			OFFSET 0.577358 -80.825211 -3.695000
			CHANNELS 3 Xrotation Yrotation Zrotation
			JOINT mixamorig:LeftFoot
			{
				OFFSET -0.577356 -83.370262 -6.520700
				CHANNELS 3 Xrotation Yrotation Zrotation
				JOINT mixamorig:LeftToeBase
				{
					OFFSET 0.750401 -20.798306 25.135401
					CHANNELS 3 Xrotation Yrotation Zrotation
					JOINT mixamorig:LeftToe_End
					{
						OFFSET -0.000500 0.001200 19.917799
						CHANNELS 3 Xrotation Yrotation Zrotation
						End Site
						{
							OFFSET 0.000000 19.917805 0.000000
						}
					}
				}
			}
		}
	}
	JOINT mixamorig:RightUpLeg
	{
		OFFSET -18.162500 -13.585098 -0.041000
		CHANNELS 3 Xrotation Yrotation Zrotation
		JOINT mixamorig:RightLeg
		{
			OFFSET -0.595024 -80.945297 -3.631900
			CHANNELS 3 Xrotation Yrotation Zrotation
			JOINT mixamorig:RightFoot
			{
				OFFSET 0.595024 -83.218193 -6.561200
				CHANNELS 3 Xrotation Yrotation Zrotation
				JOINT mixamorig:RightToeBase
				{
					OFFSET -0.753601 -20.807106 25.115000
					CHANNELS 3 Xrotation Yrotation Zrotation
					JOINT mixamorig:RightToe_End
					{
						OFFSET 0.000299 0.001700 19.918200
						CHANNELS 3 Xrotation Yrotation Zrotation
						End Site
						{
							OFFSET 0.000000 19.918203 0.000000
						}
					}
				}
			}
		}
	}
}
MOTION
Frames: 4
Frame Time: 0.033333
0.461275 191.950592 1.122572 8.867232 4.777555 -3.669584 2.298535 -0.578419 4.688208 8.747117 0.853317 -0.348306 10.542754 1.523969 2.566201 -2.801887 -1.109814 0.873130 -25.610764 -1.891471 0.098800 0.000000 0.000000 0.000000 0.000000 0.000000 0.000000 0.000000 0.000000 0.000000 -13.278029 -10.625979 -6.976378 37.600669 6.913480 -71.029576 0.000080 -78.791512 0.000065 6.366322 -11.905330 11.781075 -1.713654 3.212084 -46.753686 7.058999 5.725429 -101.934447 3.420037 5.323729 -65.412462 -0.000001 -0.000001 0.000000 -8.149071 9.433617 -0.303258 26.711490 42.196202 -31.083115 -22.015679 25.043339 67.576642 -0.000003 0.000002 -0.000000 -2.414249 2.745838 -48.164534 6.636104 5.798323 -97.724031 5.705992 5.849272 -88.576864 -0.000000 -0.000004 -0.000001 0.182886 5.758887 -59.231769 8.224055 5.349790 -113.963509 5.697456 5.849037 -88.493317 0.000002 -0.000001 0.000002 0.767465 11.153236 -42.416274 6.501383 5.814932 -96.392295 6.626081 5.799695 -97.624536 0.000002 -0.000001 0.000002 -0.625256 -8.640719 15.296316 -15.634918 12.526024 64.746286 0.000002 45.308968 0.000010 16.848212 9.192585 -4.758895 -1.907749 0.299844 27.846826 5.697598 -4.539715 102.922611 2.755291 -4.251897 65.873602 0.000001 -0.000002 -0.000001 -9.958314 -4.274692 10.762605 0.979504 -29.852441 -26.097745 8.294871 -54.383756 0.183303 -0.000002 -0.000004 -0.000002 -0.682969 5.857268 23.073291 4.247083 -4.639088 84.943053 4.129139 -4.627189 83.482650 -0.000003 -0.000001 -0.000001 -1.405721 -1.399236 32.901113 5.214653 -4.623763 96.882388 2.921398 -4.322249 68.095278 -0.000001 0.000000 0.000001 -1.389314 -4.386801 33.731910 4.542416 -4.655745 88.586625 2.369933 -4.057891 60.558800 0.000001 0.000001 0.000000 -46.788322 9.148642 5.516361 68.462804 -1.727149 9.808285 20.980852 -0.402107 -3.572673 -29.018154 0.369368 -1.130947 0.000001 -0.000000 0.000000 -21.514133 -3.764446 9.357703 32.976232 1.134309 -2.233026 -18.931717 9.266432 -8.954663 -3.074996 -0.000006 0.000000 -0.000000 -0.000001 0.000000 
3.531454 196.071777 25.209478 5.457007 9.376272 -2.844006 2.048084 -0.437984 3.923868 9.288391 0.603686 -0.465021 10.917943 1.208611 2.158268 -3.599584 -1.169252 1.513095 -25.989551 -2.832728 -0.386389 0.000000 -0.000000 0.000000 0.000000 -0.000000 0.000000 0.000000 -0.000000 0.000000 -12.437181 -10.491714 -1.431754 15.452294 -1.674060 -71.600757 -0.000013 -69.007717 -0.000027 3.017651 -16.254365 12.463568 -1.453517 3.029336 -42.977210 6.903696 5.755900 -100.381952 3.284453 5.259835 -63.942619 -0.000003 -0.000000 0.000003 -7.948136 8.043546 0.038186 26.184567 41.940158 -29.908159 -22.075737 25.157106 66.626221 -0.000003 0.000001 0.000001 -2.055414 2.554865 -44.270325 6.494296 5.815705 -96.322552 5.495784 5.840304 -86.512849 0.000001 0.000000 0.000001 0.145773 5.425088 -54.357074 8.045661 5.425228 -112.063501 5.496230 5.840309 -86.517337 -0.000001 -0.000001 -0.000001 0.347923 10.420186 -38.966157 5.742947 5.850042 -88.939390 6.476640 5.817652 -96.148334 0.000000 0.000000 0.000000 -2.396864 -8.498649 11.978503 -8.571919 9.556422 58.217302 -0.000015 44.785591 0.000031 9.554318 6.802654 -3.501002 -1.851601 0.210224 27.752964 5.640583 -4.552388 102.203228 2.729997 -4.240507 65.531881 0.000002 0.000002 0.000001 -9.934899 -4.090497 10.584701 1.145676 -30.036273 -25.565335 8.127894 -53.898061 -0.107807 0.000001 0.000002 0.000003 -0.515038 5.811303 22.829052 4.200191 -4.634717 84.362911 4.056758 -4.618387 82.584610 0.000001 -0.000001 0.000002 -1.351720 -1.470398 32.798247 5.161471 -4.629848 96.223165 2.909832 -4.317596 67.941961 -0.000004 0.000000 0.000004 -1.383640 -4.501076 33.656727 4.486546 -4.654044 87.898148 2.363815 -4.054438 60.472193 0.000001 0.000002 0.000002 -47.415696 7.021950 3.981919 70.384239 -1.905907 7.102079 17.010221 3.619904 -0.745367 -12.524352 0.000006 0.000001 0.000000 0.000000 -0.000001 -10.240608 7.980198 6.750717 26.857270 -1.104435 6.908948 -8.171576 3.124247 -12.227289 -16.695494 0.000001 -0.000002 -0.000000 0.000001 -0.000000 
6.496108 199.917892 48.925995 2.247856 13.595989 -1.713384 1.779270 -0.287733 2.948615 9.944773 0.342951 -0.590684 11.393815 0.877511 1.726336 -4.511591 -1.183063 2.245797 -26.657731 -3.892311 -0.986525 0.000001 0.000000 0.000001 0.000001 0.000000 0.000001 0.000001 0.000000 0.000001 -11.300663 -10.975426 4.068384 5.732518 -8.346772 -68.230257 -0.000003 -59.597635 -0.000015 -1.240836 -22.108383 12.382731 -1.191638 2.876072 -39.002945 6.742708 5.782927 -98.780518 3.146438 5.190362 -62.426952 0.000001 0.000000 -0.000001 -7.730683 6.592633 0.418751 25.637060 41.666329 -28.698232 -22.124467 25.275738 65.637968 -0.000002 0.000000 0.000002 -1.694066 2.405947 -40.170788 6.347645 5.830003 -94.877010 5.279463 5.823169 -84.384139 -0.000002 0.000005 0.000002 0.121531 5.092651 -49.233585 7.859080 5.496833 -110.103367 5.289123 5.824107 -84.479420 -0.000002 0.000001 -0.000003 -0.015318 9.630684 -35.351847 4.950930 5.781647 -81.135250 6.322107 5.832154 -94.625625 0.000000 0.000002 0.000002 -4.362300 -8.455568 7.845979 0.137686 5.012551 53.466055 0.000003 44.481494 0.000013 1.814504 3.785393 -2.648321 -1.795756 0.120431 27.659169 5.583417 -4.564339 101.483832 2.704750 -4.228967 65.190133 0.000002 -0.000002 -0.000002 -9.911340 -3.906792 10.406337 1.315121 -30.217863 -25.030794 7.958972 -53.408756 -0.417703 0.000004 -0.000000 -0.000001 -0.347560 5.764083 22.585095 4.153346 -4.629862 83.782789 3.984530 -4.608436 81.686576 0.000003 -0.000001 0.000002 -1.297977 -1.541707 32.695395 5.108236 -4.635322 95.563984 2.898297 -4.312920 67.788658 -0.000004 -0.000001 -0.000001 -1.378260 -4.615376 33.581421 4.430704 -4.651674 87.209686 2.357696 -4.050979 60.385593 -0.000001 -0.000002 0.000004 -46.988788 5.750133 2.633374 68.858566 -2.482491 4.130755 14.269204 7.447360 2.096107 -14.310663 -0.000003 0.000002 -0.000000 -0.000000 -0.000000 -1.598345 5.147155 7.417333 24.222687 -5.343331 6.251773 18.171256 -1.514606 -9.144888 -44.097713 1.072575 -1.981735 0.000000 0.000001 0.000000 
9.322255 202.659424 70.647980 0.582916 16.526333 0.048945 1.500469 -0.095444 1.578910 10.686438 0.074181 -0.722880 11.941562 0.535024 1.277083 -5.480318 -1.177508 3.023764 -27.477772 -5.006284 -1.640902 -0.000001 -0.000001 0.000000 -0.000001 -0.000001 0.000000 -0.000001 -0.000001 0.000000 -9.509514 -10.685708 9.109869 -0.160634 -17.227171 -55.466303 0.000006 -49.890864 0.000002 -6.169739 -29.252546 10.612519 -0.956548 2.725275 -34.852376 6.575596 5.806168 -97.125488 3.005789 5.114752 -60.861022 0.000004 0.000000 -0.000001 -7.493794 5.064989 0.846451 25.067505 41.372860 -27.450421 -22.158588 25.397392 64.606650 0.000002 -0.000000 0.000000 -1.355376 2.267556 -35.888686 6.195744 5.840911 -93.383098 5.056774 5.797068 -82.184463 0.000003 -0.000001 0.000003 0.085450 4.741826 -43.890174 7.663798 5.564103 -108.077246 5.075868 5.799645 -82.373536 -0.000000 -0.000000 0.000002 -0.328314 8.771990 -31.590622 4.145357 5.597749 -73.023117 6.162065 5.842829 -93.052025 -0.000006 -0.000001 0.000001 -6.388026 -8.564175 3.327442 9.535436 -0.633039 51.951846 0.000007 44.024421 -0.000003 -5.779322 0.499036 -2.525428 -1.740205 0.030481 27.565457 5.526085 -4.575575 100.764387 2.679589 -4.217274 64.848411 -0.000001 0.000003 -0.000002 -9.887720 -3.723573 10.227557 1.488372 -30.397255 -24.494163 7.791264 -52.918441 -0.730331 -0.000003 -0.000001 0.000004 -0.180589 5.715665 22.341465 4.106538 -4.624546 83.202639 3.912469 -4.597366 80.788584 0.000005 -0.000001 0.000000 -1.244508 -1.613195 32.592611 5.054929 -4.640194 94.904802 2.886774 -4.308213 67.635368 -0.000004 -0.000000 -0.000003 -1.373173 -4.729652 33.506002 4.374885 -4.648624 86.521210 2.351579 -4.047499 60.299000 -0.000001 -0.000001 -0.000000 -48.822568 5.465918 0.651544 67.089280 -2.050420 1.037015 11.915341 11.008557 4.417866 -16.205689 -0.000010 0.000002 -0.000001 -0.000001 0.000000 -16.891381 -8.523624 3.891151 60.136161 -5.677595 -0.607797 34.370700 0.758189 13.563861 -5.161933 0.000004 0.000005 0.000000 0.000000 0.000000 
